<svg width="34" height="34" viewBox="0 0 34 34" fill="none" xmlns="http://www.w3.org/2000/svg">
<path d="M17 17.0004L4.318 11.9344L5.1 30.6004H1.7L2.516 11.2034L0 10.2004L17 3.40039L34 10.2004L17 17.0004ZM17 8.50039C16.065 8.50039 15.3 8.87439 15.3 9.35039C15.3 9.82639 16.065 10.2004 17 10.2004C17.935 10.2004 18.7 9.82639 18.7 9.35039C18.7 8.87439 17.935 8.50039 17 8.50039ZM17 18.7004L26.469 14.9094C27.676 16.5074 28.509 18.4284 28.781 20.5194C28.271 20.4514 27.744 20.4004 27.2 20.4004C22.865 20.4004 19.074 22.7294 17 26.1974C15.9473 24.4307 14.4538 22.9676 12.6658 21.9514C10.8778 20.9352 8.85658 20.4008 6.8 20.4004C6.256 20.4004 5.729 20.4514 5.219 20.5194C5.491 18.4284 6.324 16.5074 7.531 14.9094L17 18.7004Z" fill="white"/>
</svg>
