<svg width="22" height="19" viewBox="0 0 22 19" fill="none" xmlns="http://www.w3.org/2000/svg">
<path d="M12.5714 0C10.0708 0 7.67262 1.00089 5.90442 2.78248C4.13622 4.56408 3.14286 6.98044 3.14286 9.5H0L4.07524 13.6061L4.14857 13.7539L8.38095 9.5H5.23809C5.23809 5.415 8.51714 2.11111 12.5714 2.11111C16.6257 2.11111 19.9048 5.415 19.9048 9.5C19.9048 13.585 16.6257 16.8889 12.5714 16.8889C10.5495 16.8889 8.71619 16.055 7.39619 14.7144L5.90857 16.2133C6.78167 17.0979 7.81994 17.7996 8.9635 18.2778C10.1071 18.7561 11.3333 19.0015 12.5714 19C15.072 19 17.4702 17.9991 19.2384 16.2175C21.0066 14.4359 22 12.0196 22 9.5C22 6.98044 21.0066 4.56408 19.2384 2.78248C17.4702 1.00089 15.072 3.75443e-08 12.5714 0ZM11.5238 5.27778V10.5556L16.0076 13.2367L16.7619 11.9594L13.0952 9.76388V5.27778H11.5238Z" fill="#E7E7E7"/>
</svg>
